<svg viewBox="0 0 158 32" fill="none" xmlns="http://www.w3.org/2000/svg">
    <g clip-path="url(#clip0)">
        <path d="M53.5141 5.73404V26.042H50.6143V16.7569H43.6586V26.042H40.7642V5.73404H43.6586V13.8561H50.6116V5.73404H53.5141Z" fill="#FFD700"/>
        <path d="M70.8969 19.3689V26.042H67.9998V21.3414H61.0468V26.042H58.1497V19.3689L63.0626 5.73404H65.9732L70.8969 19.3689ZM61.5669 18.4407H67.4797L64.5529 10.3186H64.4936L61.5669 18.4407Z" fill="#FFD700"/>
        <path d="M83.5013 15.888L88.2822 26.042H85.094L81.9086 19.2826L78.7204 26.042H75.5322L80.3104 15.888L75.5322 5.73404H78.7204L81.9086 12.48L85.094 5.73404H88.2822L83.5013 15.888Z" fill="#FFD700"/>
        <path d="M105.668 19.3689V26.042H102.768V21.3414H95.8148V26.042H92.9177V19.3689L97.8441 5.73404H100.741L105.668 19.3689ZM96.3377 18.4407H102.248L99.321 10.3186H99.2617L96.3377 18.4407Z" fill="#FFD700"/>
        <path d="M120.153 12.5528V10.9554C120.157 10.6496 120.1 10.346 119.985 10.0626C119.87 9.7793 119.699 9.52189 119.483 9.3056C119.267 9.08932 119.01 8.91853 118.727 8.80332C118.444 8.68811 118.141 8.63081 117.835 8.6348H115.518C115.213 8.63337 114.911 8.69242 114.629 8.80854C114.347 8.92465 114.091 9.09553 113.876 9.3113C113.66 9.52708 113.49 9.78347 113.374 10.0657C113.258 10.3479 113.199 10.6503 113.2 10.9554V20.791C113.202 21.4058 113.447 21.9948 113.881 22.4295C114.315 22.8643 114.904 23.1094 115.518 23.1116H117.835C118.449 23.1094 119.038 22.8643 119.472 22.4295C119.906 21.9948 120.151 21.4058 120.153 20.791V18.0062H115.806V15.1109H123.05V20.791C123.052 22.1791 122.505 23.5115 121.527 24.4959C120.549 25.4803 119.222 26.0363 117.835 26.042H115.518C114.133 26.0313 112.808 25.4737 111.832 24.4904C110.855 23.5071 110.306 22.1776 110.303 20.791V10.9554C110.302 10.2695 110.437 9.59024 110.698 8.95644C110.96 8.32264 111.344 7.74676 111.829 7.26177C112.313 6.77678 112.888 6.3922 113.521 6.13006C114.154 5.86791 114.833 5.73334 115.518 5.73405H117.835C118.521 5.7312 119.2 5.8643 119.834 6.12569C120.468 6.38707 121.044 6.77157 121.529 7.25698C122.014 7.7424 122.398 8.31913 122.659 8.9539C122.92 9.58868 123.053 10.2689 123.05 10.9554V12.5528H120.153Z" fill="#FFD700"/>
        <path d="M132.9 26.042C131.515 26.0313 130.191 25.4737 129.214 24.4904C128.238 23.5071 127.688 22.1776 127.686 20.791V10.9554C127.685 10.2696 127.82 9.5905 128.082 8.95686C128.344 8.32322 128.728 7.74748 129.212 7.26256C129.696 6.77764 130.271 6.39305 130.904 6.13078C131.537 5.86851 132.215 5.7337 132.9 5.73405H135.221C135.906 5.7312 136.586 5.8643 137.22 6.12569C137.854 6.38707 138.43 6.77157 138.914 7.25698C139.399 7.7424 139.783 8.31913 140.044 8.9539C140.305 9.58868 140.438 10.2689 140.435 10.9554V20.791C140.438 22.1791 139.89 23.5115 138.912 24.4959C137.935 25.4803 136.607 26.0363 135.221 26.042H132.9ZM137.538 20.791V10.9554C137.542 10.6496 137.485 10.346 137.37 10.0626C137.255 9.7793 137.084 9.52189 136.868 9.3056C136.652 9.08932 136.395 8.91853 136.112 8.80332C135.829 8.68811 135.526 8.63081 135.221 8.6348H132.9C132.596 8.63337 132.294 8.69242 132.012 8.80854C131.73 8.92465 131.474 9.09553 131.258 9.3113C131.043 9.52708 130.872 9.78347 130.756 10.0657C130.64 10.3479 130.581 10.6503 130.583 10.9554V20.791C130.585 21.4058 130.83 21.9948 131.264 22.4295C131.698 22.8643 132.286 23.1094 132.9 23.1116H135.221C135.835 23.1094 136.423 22.8643 136.857 22.4295C137.291 21.9948 137.536 21.4058 137.538 20.791Z" fill="#FFD700"/>
        <path d="M157.818 5.73404V26.042H153.614L147.955 10.6073V26.042H145.071V5.73404H149.273L154.932 21.1687V5.73404H157.818Z" fill="#FFD700"/>

        <path d="M23.0637 21.3333L27.6775 23.9993L13.8387 32L0 23.9993V8.00068L13.8387 0V5.33468L4.61381 10.6667V21.3333L13.8387 26.6653L23.0637 21.3333Z" fill="#0057B8"/>
        <path d="M25.3707 10.6667L16.1458 15.9987V21.3333L29.9845 13.3327L25.3707 10.6667Z" fill="#FFD700"/>
        <path d="M16.1458 5.33469L20.7596 8.00067L16.1458 10.6667V5.33469Z" fill="#FFD700"/>
    </g>
    <defs>
        <clipPath id="clip0">
            <rect width="157.818" height="32" fill="white"/>
        </clipPath>
    </defs>
</svg>
