<xml version="1.0" standalone="no"?><svg xmlns="http://www.w3.org/2000/svg" viewBox="0 0 1440 320"><path fill="#08043f" fill-opacity="1" d="M0,288L21.8,282.7C43.6,277,87,267,131,224C174.5,181,218,107,262,96C305.5,85,349,139,393,149.3C436.4,160,480,128,524,138.7C567.3,149,611,203,655,240C698.2,277,742,299,785,293.3C829.1,288,873,256,916,234.7C960,213,1004,203,1047,176C1090.9,149,1135,107,1178,128C1221.8,149,1265,235,1309,250.7C1352.7,267,1396,213,1418,186.7L1440,160L1440,0L1418.2,0C1396.4,0,1353,0,1309,0C1265.5,0,1222,0,1178,0C1134.5,0,1091,0,1047,0C1003.6,0,960,0,916,0C872.7,0,829,0,785,0C741.8,0,698,0,655,0C610.9,0,567,0,524,0C480,0,436,0,393,0C349.1,0,305,0,262,0C218.2,0,175,0,131,0C87.3,0,44,0,22,0L0,0Z"></path></svg>