<?xml version="1.0" standalone="no"?>
<svg xmlns:xlink="http://www.w3.org/1999/xlink" id="wave" style="transform:rotate(180deg); transition: 0.3s" viewBox="0 0 1440 260" version="1.1" xmlns="http://www.w3.org/2000/svg"><defs><linearGradient id="sw-gradient-0" x1="0" x2="0" y1="1" y2="0"><stop stop-color="rgba(7, 2, 56, 1)" offset="0%"/><stop stop-color="rgba(22.838, 8.398, 164.346, 1)" offset="100%"/></linearGradient></defs><path style="transform:translate(0, 0px); opacity:1" fill="url(#sw-gradient-0)" d="M0,104L26.7,95.3C53.3,87,107,69,160,78C213.3,87,267,121,320,134.3C373.3,147,427,139,480,125.7C533.3,113,587,95,640,82.3C693.3,69,747,61,800,82.3C853.3,104,907,156,960,151.7C1013.3,147,1067,87,1120,69.3C1173.3,52,1227,78,1280,95.3C1333.3,113,1387,121,1440,108.3C1493.3,95,1547,61,1600,65C1653.3,69,1707,113,1760,138.7C1813.3,165,1867,173,1920,151.7C1973.3,130,2027,78,2080,69.3C2133.3,61,2187,95,2240,130C2293.3,165,2347,199,2400,195C2453.3,191,2507,147,2560,117C2613.3,87,2667,69,2720,65C2773.3,61,2827,69,2880,82.3C2933.3,95,2987,113,3040,138.7C3093.3,165,3147,199,3200,177.7C3253.3,156,3307,78,3360,52C3413.3,26,3467,52,3520,65C3573.3,78,3627,78,3680,99.7C3733.3,121,3787,165,3813,186.3L3840,208L3840,260L3813.3,260C3786.7,260,3733,260,3680,260C3626.7,260,3573,260,3520,260C3466.7,260,3413,260,3360,260C3306.7,260,3253,260,3200,260C3146.7,260,3093,260,3040,260C2986.7,260,2933,260,2880,260C2826.7,260,2773,260,2720,260C2666.7,260,2613,260,2560,260C2506.7,260,2453,260,2400,260C2346.7,260,2293,260,2240,260C2186.7,260,2133,260,2080,260C2026.7,260,1973,260,1920,260C1866.7,260,1813,260,1760,260C1706.7,260,1653,260,1600,260C1546.7,260,1493,260,1440,260C1386.7,260,1333,260,1280,260C1226.7,260,1173,260,1120,260C1066.7,260,1013,260,960,260C906.7,260,853,260,800,260C746.7,260,693,260,640,260C586.7,260,533,260,480,260C426.7,260,373,260,320,260C266.7,260,213,260,160,260C106.7,260,53,260,27,260L0,260Z"/></svg>