<?xml version="1.0" standalone="no"?>
<svg xmlns:xlink="http://www.w3.org/1999/xlink" id="wave" style="transform:rotate(0deg); transition: 0.3s" viewBox="0 0 1440 160" version="1.1" xmlns="http://www.w3.org/2000/svg"><defs><linearGradient id="sw-gradient-0" x1="0" x2="0" y1="1" y2="0"><stop stop-color="rgba(7, 2, 56, 1)" offset="0%"/><stop stop-color="rgba(22.838, 8.398, 164.346, 1)" offset="100%"/></linearGradient></defs><path style="transform:translate(0, 0px); opacity:1" fill="url(#sw-gradient-0)" d="M0,112L34.3,96C68.6,80,137,48,206,48C274.3,48,343,80,411,88C480,96,549,80,617,64C685.7,48,754,32,823,37.3C891.4,43,960,69,1029,88C1097.1,107,1166,117,1234,114.7C1302.9,112,1371,96,1440,74.7C1508.6,53,1577,27,1646,16C1714.3,5,1783,11,1851,32C1920,53,1989,91,2057,93.3C2125.7,96,2194,64,2263,58.7C2331.4,53,2400,75,2469,93.3C2537.1,112,2606,128,2674,122.7C2742.9,117,2811,91,2880,69.3C2948.6,48,3017,32,3086,24C3154.3,16,3223,16,3291,18.7C3360,21,3429,27,3497,40C3565.7,53,3634,75,3703,77.3C3771.4,80,3840,64,3909,56C3977.1,48,4046,48,4114,48C4182.9,48,4251,48,4320,58.7C4388.6,69,4457,91,4526,104C4594.3,117,4663,123,4731,104C4800,85,4869,43,4903,21.3L4937.1,0L4937.1,160L4902.9,160C4868.6,160,4800,160,4731,160C4662.9,160,4594,160,4526,160C4457.1,160,4389,160,4320,160C4251.4,160,4183,160,4114,160C4045.7,160,3977,160,3909,160C3840,160,3771,160,3703,160C3634.3,160,3566,160,3497,160C3428.6,160,3360,160,3291,160C3222.9,160,3154,160,3086,160C3017.1,160,2949,160,2880,160C2811.4,160,2743,160,2674,160C2605.7,160,2537,160,2469,160C2400,160,2331,160,2263,160C2194.3,160,2126,160,2057,160C1988.6,160,1920,160,1851,160C1782.9,160,1714,160,1646,160C1577.1,160,1509,160,1440,160C1371.4,160,1303,160,1234,160C1165.7,160,1097,160,1029,160C960,160,891,160,823,160C754.3,160,686,160,617,160C548.6,160,480,160,411,160C342.9,160,274,160,206,160C137.1,160,69,160,34,160L0,160Z"/></svg>